<svg width="360" height="800" viewBox="0 0 360 800" fill="none" xmlns="http://www.w3.org/2000/svg">
<g clip-path="url(#clip0_10_459)">
<rect width="360" height="800" fill="url(#paint0_linear_10_459)"/>
<g filter="url(#filter0_d_10_459)">
<mask id="mask0_10_459" style="mask-type:alpha" maskUnits="userSpaceOnUse" x="0" y="0" width="360" height="800">
<rect width="360" height="800" fill="url(#paint1_linear_10_459)"/>
</mask>
<g mask="url(#mask0_10_459)">
<g opacity="0.04">
<path d="M538 449.02V560.62L248 728L-42 560.62V449.02L248 616.4L538 449.02Z" fill="white"/>
<path d="M248 170L-42 337.38V393.2L54.6533 448.98V393.2L248 281.6L344.653 337.42L151.347 448.98L248 504.8L538 337.38L248 170Z" fill="white"/>
</g>
</g>
</g>
<g clip-path="url(#clip1_10_459)">
<path d="M223.316 434.042V412.097H227.885V414.421C228.644 413.513 229.582 412.796 230.7 412.27C231.812 411.744 233.016 411.478 234.302 411.478C235.124 411.478 235.935 411.588 236.74 411.807L234.916 416.416C234.342 416.196 233.775 416.087 233.202 416.087C232.234 416.087 231.348 416.324 230.543 416.798C229.738 417.272 229.096 417.914 228.609 418.718C228.123 419.521 227.885 420.418 227.885 421.395V434.036H223.316V434.042Z" fill="white"/>
<path d="M191.116 407.112V412.096H197.312V416.659H191.116V434.042H186.546V416.659H183.928V412.096H186.546V407.112C186.546 405.915 186.842 404.816 187.426 403.833C188.011 402.844 188.799 402.058 189.789 401.474C190.78 400.89 191.88 400.595 193.096 400.595C193.977 400.595 194.834 400.768 195.668 401.121C196.502 401.474 197.249 402.011 197.909 402.746L194.637 405.973C194.475 405.712 194.255 405.51 193.965 405.371C193.681 405.232 193.392 405.163 193.096 405.163C192.552 405.163 192.089 405.354 191.701 405.736C191.313 406.117 191.116 406.58 191.116 407.118V407.112Z" fill="white"/>
<path d="M216.291 412.12H220.854V434.042H216.268L216.094 430.861C215.451 431.989 214.576 432.891 213.482 433.579C212.382 434.267 211.09 434.608 209.596 434.608C207.986 434.608 206.469 434.308 205.05 433.701C203.631 433.093 202.38 432.249 201.308 431.168C200.231 430.086 199.397 428.843 198.795 427.432C198.193 426.021 197.897 424.506 197.897 422.881C197.897 421.256 198.193 419.845 198.778 418.463C199.363 417.081 200.173 415.873 201.216 414.837C202.252 413.802 203.457 412.987 204.83 412.391C206.196 411.802 207.667 411.507 209.231 411.507C210.795 411.507 212.237 411.871 213.459 412.594C214.681 413.317 215.694 414.242 216.499 415.369L216.302 412.125L216.291 412.12ZM209.486 430.202C210.772 430.202 211.901 429.884 212.868 429.248C213.835 428.612 214.582 427.756 215.121 426.675C215.654 425.593 215.92 424.396 215.92 423.078C215.92 421.759 215.648 420.545 215.109 419.464C214.571 418.382 213.818 417.526 212.862 416.89C211.901 416.254 210.777 415.936 209.492 415.936C208.206 415.936 207.053 416.26 205.999 416.902C204.945 417.544 204.111 418.405 203.498 419.487C202.884 420.568 202.577 421.765 202.577 423.084C202.577 424.402 202.895 425.616 203.532 426.692C204.169 427.768 205.009 428.623 206.057 429.259C207.106 429.896 208.247 430.214 209.492 430.214L209.486 430.202Z" fill="white"/>
<path d="M238.379 434.042V412.12H242.943V414.444C243.701 413.536 244.64 412.819 245.74 412.293C246.846 411.767 248.039 411.507 249.331 411.507C250.894 411.507 252.336 411.882 253.657 412.634C254.971 413.386 256.02 414.386 256.796 415.624C257.572 414.381 258.608 413.386 259.9 412.634C261.197 411.882 262.628 411.507 264.191 411.507C265.755 411.507 267.295 411.9 268.628 412.692C269.96 413.478 271.019 414.543 271.813 415.873C272.6 417.203 273 418.677 273 420.302V434.048H268.436V421.464C268.436 420.499 268.205 419.614 267.736 418.81C267.267 418.006 266.635 417.359 265.848 416.861C265.06 416.364 264.18 416.115 263.213 416.115C262.245 416.115 261.371 416.347 260.577 416.815C259.79 417.283 259.159 417.92 258.689 418.723C258.22 419.527 257.989 420.441 257.989 421.464V434.048H253.425V421.464C253.425 420.441 253.193 419.527 252.724 418.723C252.255 417.92 251.624 417.283 250.825 416.815C250.026 416.347 249.145 416.115 248.178 416.115C247.211 416.115 246.354 416.364 245.555 416.861C244.755 417.359 244.124 418.006 243.655 418.81C243.186 419.614 242.954 420.499 242.954 421.464V434.048H238.391L238.379 434.042Z" fill="white"/>
<path d="M129.959 401.589V415.3C129.24 414.172 128.308 413.265 127.15 412.571C125.991 411.877 124.636 411.53 123.09 411.53C121.544 411.53 120.003 411.83 118.607 412.432C117.212 413.028 115.99 413.86 114.93 414.918C113.87 415.977 113.036 417.208 112.44 418.602C111.843 420.001 111.536 421.499 111.536 423.084C111.536 424.668 111.837 426.166 112.44 427.559C113.036 428.953 113.87 430.173 114.93 431.231C115.99 432.29 117.218 433.122 118.607 433.718C119.997 434.314 121.492 434.62 123.09 434.62C124.688 434.62 125.991 434.273 127.15 433.579C128.308 432.885 129.24 431.972 129.959 430.827V434.048H134.522V401.595H129.959V401.589ZM128.76 426.675C128.233 427.756 127.48 428.618 126.513 429.254C125.546 429.89 124.416 430.208 123.131 430.208C121.845 430.208 120.744 429.89 119.696 429.254C118.654 428.618 117.814 427.762 117.177 426.692C116.54 425.611 116.221 424.408 116.221 423.078C116.221 421.748 116.534 420.568 117.154 419.487C117.774 418.405 118.607 417.544 119.662 416.902C120.704 416.26 121.862 415.936 123.136 415.936C124.41 415.936 125.551 416.254 126.513 416.89C127.468 417.526 128.215 418.388 128.76 419.469C129.298 420.551 129.571 421.759 129.571 423.084C129.571 424.408 129.304 425.599 128.766 426.68L128.76 426.675Z" fill="white"/>
<path d="M154.184 412.12V415.254C153.466 414.126 152.551 413.23 151.421 412.548C150.292 411.865 148.983 411.53 147.495 411.53C146.007 411.53 144.472 411.83 143.105 412.432C141.727 413.027 140.516 413.86 139.48 414.918C138.443 415.977 137.632 417.208 137.041 418.602C136.457 420.001 136.161 421.499 136.161 423.084C136.161 424.668 136.457 426.166 137.041 427.559C137.632 428.953 138.443 430.173 139.48 431.231C140.516 432.29 141.727 433.122 143.105 433.718C144.478 434.314 145.943 434.62 147.495 434.62C149.047 434.62 150.298 434.279 151.421 433.602C152.551 432.92 153.466 432.029 154.184 430.919V434.62C154.184 435.464 153.987 436.245 153.593 436.962C153.199 437.679 152.672 438.292 152.006 438.807C151.34 439.316 150.582 439.715 149.742 440.004C148.902 440.281 148.022 440.426 147.113 440.426C146.203 440.426 145.294 440.223 144.425 439.813C143.557 439.402 142.798 438.847 142.149 438.147C141.489 437.442 141.02 436.638 140.736 435.736L137.192 439.032C137.655 439.877 138.234 440.663 138.941 441.392C140.018 442.502 141.263 443.381 142.688 444.028C144.101 444.676 145.578 445.006 147.118 445.006C148.659 445.006 150.101 444.751 151.503 444.242C152.904 443.728 154.138 443.011 155.221 442.08C156.309 441.149 157.167 440.056 157.804 438.784C158.441 437.511 158.759 436.124 158.759 434.62V412.125H154.196L154.184 412.12ZM153.084 426.634C152.562 427.716 151.821 428.583 150.865 429.236C149.921 429.884 148.804 430.214 147.53 430.214C146.319 430.214 145.207 429.896 144.182 429.259C143.169 428.623 142.358 427.762 141.744 426.68C141.136 425.599 140.835 424.396 140.835 423.084C140.835 421.771 141.136 420.574 141.738 419.493C142.341 418.411 143.146 417.55 144.159 416.902C145.178 416.26 146.302 415.942 147.53 415.942C148.757 415.942 149.898 416.266 150.848 416.919C151.804 417.567 152.545 418.429 153.084 419.504C153.611 420.58 153.889 421.771 153.889 423.089C153.889 424.408 153.622 425.559 153.095 426.64L153.084 426.634Z" fill="white"/>
<path d="M96.7566 421.199H105.212C105.061 420.146 104.697 419.186 104.1 418.336C103.509 417.48 102.768 416.804 101.882 416.301C100.996 415.792 100.029 415.543 98.9747 415.543C97.9206 415.543 96.9766 415.786 96.0906 416.283C95.2045 416.781 94.469 417.457 93.8956 418.307C93.8667 418.353 93.8377 418.4 93.803 418.446C93.276 419.267 92.9227 420.187 92.7431 421.199C92.7431 421.199 92.4304 422.852 92.8937 424.685C93.0848 425.692 93.4555 426.605 93.9999 427.415C94.5501 428.225 95.2566 428.866 96.1137 429.335C96.9709 429.803 97.9206 430.04 98.9747 430.052C100.087 430.052 101.1 429.78 102.015 429.219C102.675 428.82 103.249 428.311 103.735 427.692L107.088 430.821C106.469 431.544 105.739 432.191 104.922 432.764C103.15 433.996 101.17 434.614 98.9747 434.614C96.9535 434.614 95.1118 434.094 93.4555 433.059C91.7876 432.018 90.4671 430.624 89.4826 428.878C88.4923 427.132 88 425.206 88 423.078C88 421.476 88.2896 419.973 88.8571 418.573C89.3204 417.457 89.9227 416.434 90.664 415.526C90.8378 415.306 91.0289 415.092 91.2142 414.89C92.2161 413.831 93.386 412.999 94.718 412.403C96.0442 411.807 97.4631 411.501 98.9747 411.501C100.654 411.501 102.2 411.848 103.608 412.542C105.015 413.236 106.214 414.19 107.21 415.416C108.2 416.63 108.936 418.041 109.405 419.62C109.868 421.204 110.013 422.893 109.822 424.674H100.498L96.7566 421.187V421.199Z" fill="white"/>
<path d="M169.149 421.199H177.604C177.454 420.146 177.089 419.186 176.492 418.336C175.902 417.48 175.16 416.804 174.274 416.301C173.388 415.792 172.421 415.543 171.367 415.543C170.313 415.543 169.369 415.786 168.483 416.283C167.597 416.781 166.861 417.457 166.288 418.307L166.195 418.446C165.668 419.267 165.315 420.187 165.135 421.199C165.135 421.199 164.817 422.852 165.286 424.685C165.477 425.692 165.848 426.605 166.392 427.415C166.942 428.225 167.649 428.866 168.506 429.335C169.363 429.803 170.313 430.04 171.367 430.052C172.479 430.052 173.492 429.78 174.407 429.219C175.068 428.82 175.641 428.311 176.127 427.692L179.481 430.821C178.861 431.544 178.131 432.191 177.315 432.764C175.543 433.996 173.562 434.614 171.367 434.614C169.346 434.614 167.504 434.094 165.848 433.059C164.18 432.018 162.859 430.624 161.875 428.878C160.885 427.132 160.392 425.206 160.392 423.078C160.392 421.476 160.682 419.973 161.249 418.573C161.713 417.457 162.315 416.434 163.056 415.526C163.23 415.306 163.421 415.092 163.607 414.89C164.608 413.831 165.778 412.999 167.11 412.403C168.437 411.807 169.855 411.501 171.367 411.501C173.046 411.501 174.593 411.848 176 412.542C177.407 413.236 178.606 414.19 179.602 415.416C180.593 416.63 181.328 418.041 181.797 419.62C182.261 421.204 182.405 422.893 182.214 424.674H172.89L169.149 421.187V421.199Z" fill="white"/>
<path d="M222.343 342.207V358.289L180.5 382.408L138.657 358.289V342.207L180.5 366.327L222.343 342.207Z" fill="#FF585D"/>
<path d="M180.5 302L138.657 326.12V334.163L152.603 342.201V334.163L180.5 318.082L194.446 326.125L166.554 342.201L180.5 350.245L222.343 326.12L180.5 302Z" fill="white"/>
</g>
<path d="M121.059 458.375V472.297H119.825V458.375H121.059ZM111.637 459.562V463.234H115.778V459.562H116.981V468.938H110.419V459.562H111.637ZM111.637 467.906H115.778V464.219H111.637V467.906ZM134.909 458.375V472.266H133.737V464.984H131.691V471.547H130.566V458.688H131.691V463.969H133.737V458.375H134.909ZM128.753 460.078V461.094H124.769V467.781C126.683 467.773 128.011 467.703 129.55 467.391L129.659 468.422C127.987 468.766 126.566 468.828 124.441 468.828H123.55V460.078H128.753ZM143.494 459.594V460.828H146.744V458.391H147.978V468.531H146.744V464.828H143.494V466.078H137.119V459.594H143.494ZM138.337 460.609V465.094H142.291V460.609H138.337ZM148.291 470.938V471.969H138.994V467.625H140.228V470.938H148.291ZM143.494 463.812H146.744V461.859H143.494V463.812ZM164.256 458.375V464.031H166.506V465.062H164.256V472.266H163.037V458.375H164.256ZM160.662 459.875C160.662 463.812 158.819 467.391 154.287 469.625L153.6 468.656C157.194 466.867 159.147 464.195 159.428 460.906H154.241V459.875H160.662ZM179.591 465.375V466.375H173.856V467.969H178.028V472.219H176.794V468.969H168.341V467.969H172.653V466.375H166.934V465.375H179.591ZM173.856 458.312V459.75H178.309V460.734H173.934C174.02 462.312 176.216 463.398 178.841 463.656L178.434 464.594C176.145 464.344 174.098 463.508 173.262 462.094C172.419 463.508 170.372 464.344 168.091 464.594L167.684 463.656C170.294 463.398 172.489 462.312 172.591 460.734H168.247V459.75H172.653V458.312H173.856ZM188.066 459.453V460.188C188.05 461.094 188.05 462.484 187.706 464.297L186.472 464.203C186.808 462.539 186.839 461.359 186.862 460.484H181.144V459.453H188.066ZM184.487 462.531V465.516C186.027 465.453 187.62 465.344 189.066 465.141L189.144 466.047C186.237 466.547 182.878 466.609 180.409 466.609L180.284 465.594C181.183 465.586 182.198 465.578 183.269 465.547V462.531H184.487ZM191.253 458.375V462.906H193.284V463.953H191.253V468.828H190.003V458.375H191.253ZM191.706 470.938V471.969H182.425V467.891H183.659V470.938H191.706ZM205.259 458.375V472.297H204.041V458.375H205.259ZM201.041 459.672V464.609H195.853V467.891C198.158 467.891 200.212 467.789 202.697 467.391L202.822 468.422C200.259 468.828 198.15 468.922 195.759 468.922H194.603V463.609H199.806V460.688H194.572V459.672H201.041ZM217.756 462.625V464.453H223.491V465.453H210.834V464.453H216.553V462.625H217.756ZM217.772 459.016C217.772 460.812 220.241 462.141 222.772 462.422L222.334 463.359C220.147 463.062 218.03 462.117 217.162 460.594C216.272 462.117 214.147 463.062 211.975 463.359L211.537 462.422C214.069 462.141 216.537 460.812 216.537 459.016V458.484H217.772V459.016ZM221.866 466.609V469.766H213.616V471.141H222.287V472.109H212.397V468.844H220.662V467.562H212.366V466.609H221.866ZM235.419 458.938V462.547H227.044V464.344H235.716V465.359H225.809V461.578H234.169V459.938H225.778V458.938H235.419ZM236.966 466.828V467.812H231.184V472.297H229.966V467.812H224.247V466.828H236.966ZM242.441 460.953C242.441 462.984 243.831 464.906 245.847 465.703L245.159 466.656C243.628 466.023 242.441 464.758 241.863 463.172C241.261 464.883 240.011 466.242 238.394 466.906L237.722 465.922C239.784 465.125 241.222 463.125 241.238 460.953V459.172H242.441V460.953ZM249.206 458.391V468.766H247.972V464.312H245.113V463.312H247.972V461.469H245.113V460.453H247.972V458.391H249.206ZM249.519 470.938V471.969H240.222V467.688H241.456V470.938H249.519Z" fill="white"/>
</g>
<defs>
<filter id="filter0_d_10_459" x="-4" y="170" width="368" height="566" filterUnits="userSpaceOnUse" color-interpolation-filters="sRGB">
<feFlood flood-opacity="0" result="BackgroundImageFix"/>
<feColorMatrix in="SourceAlpha" type="matrix" values="0 0 0 0 0 0 0 0 0 0 0 0 0 0 0 0 0 0 127 0" result="hardAlpha"/>
<feOffset dy="4"/>
<feGaussianBlur stdDeviation="2"/>
<feComposite in2="hardAlpha" operator="out"/>
<feColorMatrix type="matrix" values="0 0 0 0 0 0 0 0 0 0 0 0 0 0 0 0 0 0 0.25 0"/>
<feBlend mode="normal" in2="BackgroundImageFix" result="effect1_dropShadow_10_459"/>
<feBlend mode="normal" in="SourceGraphic" in2="effect1_dropShadow_10_459" result="shape"/>
</filter>
<linearGradient id="paint0_linear_10_459" x1="360" y1="800" x2="-53.2557" y2="771.472" gradientUnits="userSpaceOnUse">
<stop stop-color="#033687"/>
<stop offset="1" stop-color="#0C4EB8"/>
</linearGradient>
<linearGradient id="paint1_linear_10_459" x1="360" y1="800" x2="-53.2557" y2="771.472" gradientUnits="userSpaceOnUse">
<stop stop-color="#033687"/>
<stop offset="1" stop-color="#0C4EB8"/>
</linearGradient>
<clipPath id="clip0_10_459">
<rect width="360" height="800" fill="white"/>
</clipPath>
<clipPath id="clip1_10_459">
<rect width="185" height="143" fill="white" transform="translate(88 302)"/>
</clipPath>
</defs>
</svg>
